<?xml version="1.0" encoding="UTF-8"?>
<svg id="Layer_2" data-name="Layer 2" xmlns="http://www.w3.org/2000/svg" viewBox="0 0 912 279">
  <defs>
    <style>
      .cls-1 {
        fill: #f5c84c;
      }

      .cls-1, .cls-2 {
        stroke: #04112b;
        stroke-miterlimit: 10;
        stroke-width: 7px;
      }

      .cls-3 {
        font-family: BaronNeue, 'Baron Neue';
        font-size: 97.69px;
      }

      .cls-3, .cls-4 {
        fill: #041126;
      }

      .cls-2 {
        fill: none;
      }

      .cls-5 {
        fill: #353e62;
      }

      .cls-5, .cls-6, .cls-7, .cls-8, .cls-9, .cls-10, .cls-11, .cls-4, .cls-12 {
        stroke-width: 0px;
      }

      .cls-6 {
        fill: #bf8c30;
      }

      .cls-7 {
        fill: #c09233;
      }

      .cls-8 {
        fill: #fdf5f2;
      }

      .cls-9 {
        fill: #fff;
      }

      .cls-10 {
        fill: #eec446;
      }

      .cls-11 {
        fill: #04112b;
      }

      .cls-12 {
        fill: #051025;
      }
    </style>
  </defs>
  <g>
    <g>
      <path class="cls-1" d="m706.45,110.03c-.13.05-.27-.04-.28-.18-.12-5.9-1.02-14.9-4.99-25.01-3.39-8.62-7.83-15.06-11.33-19.34-.13-.16.04-.39.24-.31,5.28,2.32,10.56,4.64,15.85,6.95.12.05.26-.02.28-.15.58-3.74.98-8.51.59-14.01-.4-5.65-1.5-10.46-2.67-14.21-.07-.22.23-.36.36-.17,2.74,4.09,6.9,9.34,12.93,14.38,6.47,5.41,12.78,8.64,17.36,10.57.08.03.16.01.22-.05,3.95-4.09,8.72-9.83,13.02-17.39,4.75-8.36,7.34-16.16,8.81-22.11.05-.21.36-.2.39.02.85,5.67,2.8,13.9,7.66,22.71,3.83,6.95,8.25,12.05,11.77,15.52.06.06.14.07.22.04,4.87-2.1,10.66-5.08,16.74-9.32,6.84-4.76,12.11-9.77,16.03-14.06.15-.17.42,0,.33.21-1.48,3.44-3.07,8.13-3.87,13.85-.83,5.95-.53,11.04-.03,14.75.02.12.14.2.26.16,3.36-1.09,6.83-2.31,10.39-3.67,1.87-.71,3.69-1.44,5.46-2.17.19-.08.36.15.23.31-3.79,4.4-9.06,11.67-12.56,21.85-2.82,8.2-3.52,15.48-3.6,20.63,0,.14-.15.23-.28.18-10.98-4.64-21.96-9.28-32.94-13.92-.02,0-.05-.02-.07-.02l-31.15-.62s-.06,0-.08.02l-35.3,14.55Z"/>
      <g>
        <circle class="cls-11" cx="756.77" cy="19.89" r="8.74"/>
        <path class="cls-6" d="m762.02,19.89c0,2.9-2.35,5.25-5.25,5.25-1.43,0-2.73-.57-3.68-1.51-.84-.82-1.41-1.94-1.54-3.18-.02-.18-.03-.37-.03-.56,0-2.3,1.49-4.26,3.55-4.96.53-.18,1.1-.28,1.7-.28.71,0,1.4.14,2.02.4,1.89.79,3.23,2.66,3.23,4.84Z"/>
        <path class="cls-10" d="m760.36,18.79c0,2.9-2.35,5.25-5.25,5.25-.71,0-1.4-.14-2.02-.4-.84-.82-1.41-1.94-1.54-3.18-.02-.18-.03-.37-.03-.56,0-2.3,1.49-4.26,3.55-4.96.53-.18,1.1-.28,1.7-.28.71,0,1.4.14,2.02.4.97.95,1.57,2.28,1.57,3.74Z"/>
        <path class="cls-8" d="m757.05,17.96c0,1.83-1.49,3.31-3.31,3.31-.83,0-1.6-.31-2.18-.82-.02-.18-.03-.37-.03-.56,0-2.3,1.49-4.26,3.55-4.96,1.16.52,1.97,1.68,1.97,3.03Z"/>
      </g>
      <g>
        <circle class="cls-11" cx="812.36" cy="37.38" r="8.74"/>
        <path class="cls-6" d="m817.61,37.38c0,2.9-2.35,5.25-5.25,5.25-1.43,0-2.73-.57-3.68-1.51-.84-.82-1.41-1.94-1.54-3.18-.02-.18-.03-.37-.03-.56,0-2.3,1.49-4.26,3.55-4.96.53-.18,1.1-.28,1.7-.28.71,0,1.4.14,2.02.4,1.89.79,3.23,2.66,3.23,4.84Z"/>
        <path class="cls-10" d="m815.95,36.27c0,2.9-2.35,5.25-5.25,5.25-.71,0-1.4-.14-2.02-.4-.84-.82-1.41-1.94-1.54-3.18-.02-.18-.03-.37-.03-.56,0-2.3,1.49-4.26,3.55-4.96.53-.18,1.1-.28,1.7-.28.71,0,1.4.14,2.02.4.97.95,1.57,2.28,1.57,3.74Z"/>
        <path class="cls-8" d="m812.64,35.45c0,1.83-1.49,3.31-3.31,3.31-.83,0-1.6-.31-2.18-.82-.02-.18-.03-.37-.03-.56,0-2.3,1.49-4.26,3.55-4.96,1.16.52,1.97,1.68,1.97,3.03Z"/>
      </g>
      <g>
        <circle class="cls-11" cx="700.56" cy="35.51" r="8.74"/>
        <path class="cls-6" d="m705.81,35.51c0,2.9-2.35,5.25-5.25,5.25-1.43,0-2.73-.57-3.68-1.51-.84-.82-1.41-1.94-1.54-3.18-.02-.18-.03-.37-.03-.56,0-2.3,1.49-4.26,3.55-4.96.53-.18,1.1-.28,1.7-.28.71,0,1.4.14,2.02.4,1.89.79,3.23,2.66,3.23,4.84Z"/>
        <path class="cls-10" d="m704.15,34.4c0,2.9-2.35,5.25-5.25,5.25-.71,0-1.4-.14-2.02-.4-.84-.82-1.41-1.94-1.54-3.18-.02-.18-.03-.37-.03-.56,0-2.3,1.49-4.26,3.55-4.96.53-.18,1.1-.28,1.7-.28.71,0,1.4.14,2.02.4.97.95,1.57,2.28,1.57,3.74Z"/>
        <path class="cls-8" d="m700.84,33.57c0,1.83-1.49,3.31-3.31,3.31-.83,0-1.6-.31-2.18-.82-.02-.18-.03-.37-.03-.56,0-2.3,1.49-4.26,3.55-4.96,1.16.52,1.97,1.68,1.97,3.03Z"/>
      </g>
      <path class="cls-9" d="m695.87,69.55c.87-.63,3.31,2.65,6.25,1.87,2.12-.56,2.49-2.69,3.75-2.5,1.66.26,3.19,4.3,1.87,6.87-.74,1.43-1.78,1.27-2.5,2.5-1.26,2.16.73,4.78,2.5,9.37,1.46,3.78,3.96,10.27,1.25,13.74-.77.99-2.39,2.28-3.75,1.87-2.92-.87-.74-8.44-3.75-18.74-2.35-8.05-6.81-14.13-5.62-14.99Z"/>
      <path class="cls-7" d="m800.49,54.87c.87-.63,1.43-4.85,4.37-5.62,2.12-.56.62,23.54,1.87,23.73,1.66.26,11.31-3.19,9.99-.62-.74,1.43-5.53,10.64-6.25,11.87-1.26,2.16-3.02,3.53-1.25,8.12,1.46,3.78-.72,9.95-3.44,13.43-.77.99-2.39,2.28-3.75,1.87-2.92-.87,5.93-27.79-.31-29.67-8.03-2.41-2.44-22.25-1.25-23.11Z"/>
      <path class="cls-9" d="m749.4,58.3c-2.28,4.31-6.2,11.72-11.15,12.81-1.41.31-3.68.28-4.28-1.04-1.29-2.83,6.87-7.85,13.76-18.92,5.39-8.65,7.58-17.1,9.16-17,1.17.07-.56-1.12,2.19.29,1.98,1.02-.11.21.61,1.27.94,1.4,2.59-3.2-.59-1.91"/>
      <path class="cls-7" d="m763.85,57.89c1.93,3.96,5.24,10.77,9.86,11.53,1.32.22,3.46.07,4.1-1.21,1.38-2.75-6.08-7.07-12.01-17.18-4.64-7.9-6.25-15.79-7.76-15.61-1.11.13.59-1.09-2.08.39-1.93,1.07.09.19-.64,1.23-.97,1.37-2.28-2.89.66-1.84"/>
      <path class="cls-2" d="m706.49,110.04c-.13.05-.27-.04-.28-.18-.12-5.9-1.02-14.9-4.99-25.01-3.39-8.62-7.83-15.06-11.33-19.34-.13-.16.04-.39.24-.31,5.28,2.32,10.56,4.64,15.85,6.95.12.05.26-.02.28-.15.58-3.74.98-8.51.59-14.01-.4-5.65-1.5-10.46-2.67-14.21-.07-.22.23-.36.36-.17,2.74,4.09,6.9,9.34,12.93,14.38,6.47,5.41,12.78,8.64,17.36,10.57.08.03.16.01.22-.05,3.95-4.09,8.72-9.83,13.02-17.39,4.75-8.36,7.34-16.16,8.81-22.11.05-.21.36-.2.39.02.85,5.67,2.8,13.9,7.66,22.71,3.83,6.95,8.25,12.05,11.77,15.52.06.06.14.07.22.04,4.87-2.1,10.66-5.08,16.74-9.32,6.84-4.76,12.11-9.77,16.03-14.06.15-.17.42,0,.33.21-1.48,3.44-3.07,8.13-3.87,13.85-.83,5.95-.53,11.04-.03,14.75.02.12.14.2.26.16,3.36-1.09,6.83-2.31,10.39-3.67,1.87-.71,3.69-1.44,5.46-2.17.19-.08.36.15.23.31-3.79,4.4-9.06,11.67-12.56,21.85-2.82,8.2-3.52,15.48-3.6,20.63,0,.14-.15.23-.28.18-10.98-4.64-21.96-9.28-32.94-13.92-.02,0-.05-.02-.07-.02l-31.15-.62s-.06,0-.08.02l-35.3,14.55Z"/>
    </g>
    <ellipse class="cls-9" cx="758.65" cy="179.47" rx="84.32" ry="85.88"/>
    <circle class="cls-4" cx="793.62" cy="164.17" r="9.37"/>
    <circle class="cls-9" cx="789.22" cy="161.62" r="1.9"/>
    <circle class="cls-4" cx="724.29" cy="164.17" r="9.37"/>
    <circle class="cls-9" cx="719.89" cy="161.62" r="1.9"/>
    <g>
      <circle class="cls-4" cx="758.65" cy="171.67" r="9.37"/>
      <rect class="cls-4" x="755.52" y="132.32" width="6.87" height="36.23" rx="3.44" ry="3.44"/>
      <rect class="cls-4" x="744.28" y="138.56" width="6.87" height="36.23" rx="3.44" ry="3.44" transform="translate(108.21 574.6) rotate(-45)"/>
      <path class="cls-4" d="m726.17,131.07l-1.25,1.25c1.04,5,2.08,9.99,3.12,14.99,3.54.62,7.08,1.25,10.62,1.87.83-.62,1.67-1.25,2.5-1.87v-10.62l-14.99-5.62Z"/>
    </g>
    <circle class="cls-4" cx="758.33" cy="112.64" r="4.06"/>
    <circle class="cls-4" cx="723.98" cy="122.64" r="4.06"/>
    <circle class="cls-4" cx="699" cy="145.12" r="4.06"/>
    <circle class="cls-4" cx="690.88" cy="177.6" r="4.06"/>
    <circle class="cls-4" cx="793.94" cy="123.26" r="4.06"/>
    <circle class="cls-4" cx="818.92" cy="145.75" r="4.06"/>
    <circle class="cls-4" cx="827.04" cy="178.22" r="4.06"/>
    <circle class="cls-12" cx="758.33" cy="245.06" r="4.06"/>
    <path class="cls-4" d="m758.96,91.09c-48.81,0-88.38,39.57-88.38,88.38s39.57,88.38,88.38,88.38,88.38-39.57,88.38-88.38-39.57-88.38-88.38-88.38Zm-.22,166.26c-42.1,0-76.23-34.13-76.23-76.23s34.13-76.22,76.23-76.22,76.22,34.12,76.22,76.22-34.12,76.23-76.22,76.23Z"/>
    <path class="cls-4" d="m720.61,197.27c4.83-3.14,8.61-5.56,14.37-6.87,3.94-.9,10.61-2.42,16.86,1.25,1.05.62,4.85,2.91,6.87,7.5,3.39,7.67-.86,15.66-2.5,18.74-1.28,2.41-5.1,8.8-16.24,14.99-13.63,7.57-26.51,8.33-34.98,8.74-2.43.12-23.79.93-45.6-8.74-5.18-2.3-10.46-5.22-14.99-10.62-2.33-2.78-6.35-7.7-6.87-14.99-.16-2.2-.61-8.48,3.75-13.74.53-.63,3.78-4.45,9.37-5.62,2.31-.48,6.47-1.36,9.37,1.25,2.37,2.14,2.49,5.24,2.5,5.62,0,.46.06,3.69-2.19,5.31-.18.13-2.01,1.44-3.12.62-.61-.45-.69-1.75-.62-2.5.05-.57.21-.89,0-1.25-.31-.54-1.12-.61-1.25-.62-1.41-.12-2.62,1.28-3.12,1.87-.54.62-2.99,3.48-2.5,7.5.16,1.3.89,4.1,5.62,7.5,12.4,8.88,29.47,5.38,31.23,5,1.58-.34,7.58-1.74,14.37-5.62,8.57-4.9,9.51-8.68,19.67-15.3Z"/>
    <g>
      <path class="cls-4" d="m795.5,197.27c-4.83-3.14-8.61-5.56-14.37-6.87-3.94-.9-10.61-2.42-16.86,1.25-1.05.62-4.85,2.91-6.87,7.5-3.39,7.67.86,15.66,2.5,18.74,1.28,2.41,5.1,8.8,16.24,14.99,13.63,7.57,26.51,8.33,34.98,8.74,2.43.12,23.79.93,45.6-8.74,5.18-2.3,10.46-5.22,14.99-10.62,2.33-2.78,6.35-7.7,6.87-14.99.16-2.2.61-8.48-3.75-13.74-.53-.63-3.78-4.45-9.37-5.62-2.31-.48-6.47-1.36-9.37,1.25-2.37,2.14-2.49,5.24-2.5,5.62,0,.46-.06,3.69,2.19,5.31.18.13,2.01,1.44,3.12.62.61-.45.69-1.75.62-2.5-.05-.57-.21-.89,0-1.25.31-.54,1.12-.61,1.25-.62,1.41-.12,2.62,1.28,3.12,1.87.54.62,2.99,3.48,2.5,7.5-.16,1.3-.89,4.1-5.62,7.5-12.4,8.88-29.47,5.38-31.23,5-1.58-.34-7.58-1.74-14.37-5.62-8.57-4.9-9.51-8.68-19.67-15.3Z"/>
      <path class="cls-5" d="m763.95,200.71c1.85-1.53,5.05-3.7,9.37-4.37,4.82-.75,9.62.58,16.86,5,10.43,6.36,13.8,11.71,19.99,16.86,5.58,4.65,14.63,10.11,29.36,12.49-5.8,1-14.93,1.78-25.61-.62-4.51-1.02-14.61-3.3-23.73-10.62-8.86-7.11-11.87-9.99-11.87-9.99-1.83-1.76-4.21-4.15-8.12-6.25-2.49-1.33-4.72-2.08-6.25-2.5Z"/>
    </g>
    <path class="cls-5" d="m752.15,200.71c-1.85-1.53-5.05-3.7-9.37-4.37-4.82-.75-9.62.58-16.86,5-10.43,6.36-13.8,11.71-19.99,16.86-5.58,4.65-14.63,10.11-29.36,12.49,5.8,1,14.93,1.78,25.61-.62,4.51-1.02,14.61-3.3,23.73-10.62,8.86-7.11,11.87-9.99,11.87-9.99,1.83-1.76,4.21-4.15,8.12-6.25,2.49-1.33,4.72-2.08,6.25-2.5Z"/>
  </g>
  <text class="cls-3" transform="translate(33.34 209.64)"><tspan x="0" y="0">Mister Time</tspan></text>
</svg>